# xmcd
#
# Track frame offsets: 
#        150
#        13529
#        24938
#        36568
#        48223
#        59703
#        75441
#        88096
#        100647
#        112979
#        125292
#        135325
#        148310
#
# Disc length: 2140 seconds
#
# Revision: 3
# Processed by: cddbd v1.5.1PL2 Copyright (c) Steve Scherf et al.
# Submitted via: ExactAudioCopy v0.95a5
#
DISCID=a3085a0d
DTITLE=John Lee Hooker - Shades of Blue
DYEAR=1900
DGENRE=
TTITLE0=EveryNight
TTITLE1=Will the Circle Be Unbroken
TTITLE2=Boogie Chillen
TTITLE3=Little Wheel
TTITLE4=I Love You Honey
TTITLE5=It Serves Me Right to Suffer
TTITLE6=Hobo Blues
TTITLE7=Frisco
TTITLE8=Crawlin' Kingsnake
TTITLE9=I'm in the Mood
TTITLE10=Want Ad Blues
TTITLE11=Drive Me Away
TTITLE12=You Can Lead Me Baby
EXTD=
EXTT0=
EXTT1=
EXTT2=
EXTT3=
EXTT4=
EXTT5=
EXTT6=
EXTT7=
EXTT8=
EXTT9=
EXTT10=
EXTT11=
EXTT12=
PLAYORDER=
